<svg width="97" height="30" viewBox="0 0 97 30" fill="none" xmlns="http://www.w3.org/2000/svg">
<path d="M15.76 6.84C15.2533 6.62667 14.72 6.44 14.16 6.28C13.6267 6.09333 13.0667 5.96 12.48 5.88C11.92 5.77333 11.3467 5.72 10.76 5.72C10.3333 5.72 9.89333 5.76 9.44 5.84C9.01333 5.92 8.61333 6.05333 8.24 6.24C7.89333 6.42667 7.6 6.68 7.36 7C7.14667 7.32 7.04 7.70667 7.04 8.16C7.04 8.66667 7.21333 9.10667 7.56 9.48C7.93333 9.85333 8.41333 10.2133 9 10.56C9.61333 10.88 10.2933 11.2 11.04 11.52C11.8133 11.84 12.6 12.1867 13.4 12.56C14.2 12.9333 14.9733 13.36 15.72 13.84C16.4933 14.32 17.1733 14.88 17.76 15.52C18.3733 16.16 18.8533 16.9067 19.2 17.76C19.5733 18.6133 19.76 19.6 19.76 20.72C19.76 22.32 19.48 23.68 18.92 24.8C18.3867 25.8933 17.64 26.7867 16.68 27.48C15.72 28.1733 14.6267 28.68 13.4 29C12.2 29.32 10.9333 29.48 9.6 29.48C8.45333 29.48 7.30667 29.32 6.16 29C5.04 28.7067 3.97333 28.2667 2.96 27.68C1.97333 27.0933 1.09333 26.36 0.32 25.48L3.2 21.48C3.73333 22.0133 4.33333 22.4933 5 22.92C5.66667 23.32 6.37333 23.64 7.12 23.88C7.86667 24.0933 8.61333 24.2 9.36 24.2C9.94667 24.2 10.4933 24.1333 11 24C11.5067 23.8667 11.96 23.6667 12.36 23.4C12.7867 23.1067 13.1067 22.76 13.32 22.36C13.56 21.9333 13.68 21.4267 13.68 20.84C13.68 20.2533 13.5067 19.7467 13.16 19.32C12.8133 18.8667 12.3467 18.4667 11.76 18.12C11.1733 17.7467 10.5067 17.3867 9.76 17.04C9.01333 16.6933 8.25333 16.3333 7.48 15.96C6.70667 15.5867 5.94667 15.1733 5.2 14.72C4.48 14.2667 3.82667 13.7333 3.24 13.12C2.65333 12.5067 2.18667 11.8 1.84 11C1.49333 10.1733 1.32 9.22667 1.32 8.16C1.32 6.74667 1.6 5.56 2.16 4.6C2.74667 3.61333 3.50667 2.84 4.44 2.28C5.37333 1.69333 6.38667 1.26666 7.48 0.999998C8.57333 0.733332 9.62667 0.599998 10.64 0.599998C11.3867 0.599998 12.12 0.653332 12.84 0.759999C13.56 0.866666 14.28 1.02667 15 1.24C15.72 1.45333 16.4 1.73333 17.04 2.08L15.76 6.84ZM22.9056 29V0.999998H28.7456V23.76H37.3856V29H22.9056ZM40.3619 8.68C40.3619 5.96 41.1219 3.89333 42.6419 2.48C44.1619 1.04 46.2419 0.32 48.8819 0.32C51.5219 0.32 53.5752 1.06667 55.0419 2.56C56.5085 4.05333 57.2419 6.10667 57.2419 8.72V21.56C57.2419 23.1867 56.8952 24.6 56.2019 25.8C55.5085 26.9733 54.5219 27.88 53.2419 28.52C51.9885 29.1333 50.5219 29.44 48.8419 29.44C47.2685 29.44 45.8419 29.1467 44.5619 28.56C43.2819 27.9733 42.2552 27.0933 41.4819 25.92C40.7352 24.7467 40.3619 23.2933 40.3619 21.56V8.68ZM46.2019 20.84C46.2019 21.5067 46.2952 22.08 46.4819 22.56C46.6952 23.0133 47.0019 23.36 47.4019 23.6C47.8019 23.84 48.2819 23.96 48.8419 23.96C49.3752 23.96 49.8285 23.84 50.2019 23.6C50.6019 23.3333 50.9085 22.96 51.1219 22.48C51.3352 22 51.4419 21.44 51.4419 20.8V9.48C51.4419 8.62667 51.3485 7.94667 51.1619 7.44C51.0019 6.93333 50.7219 6.56 50.3219 6.32C49.9485 6.08 49.4419 5.96 48.8019 5.96C48.2152 5.96 47.7219 6.08 47.3219 6.32C46.9485 6.53333 46.6685 6.90667 46.4819 7.44C46.2952 7.94667 46.2019 8.64 46.2019 9.52V20.84ZM70.5963 6.44V29H64.8363V6.44H59.6763V0.999998H75.8363V6.44H70.5963Z" fill="white"/>
<path d="M96.5975 22.72C96.5975 24.8267 96.0775 26.48 95.0375 27.68C93.9975 28.8533 92.2908 29.5467 89.9175 29.76L87.9975 25.28C88.3975 25.2533 88.7575 25.1733 89.0775 25.04C89.4242 24.9067 89.7175 24.72 89.9575 24.48C90.2242 24.24 90.4242 23.9333 90.5575 23.56C90.7175 23.1867 90.7975 22.7333 90.7975 22.2V19.88C90.3975 20.1467 89.9708 20.36 89.5175 20.52C89.0908 20.68 88.6375 20.7867 88.1575 20.84C87.6775 20.8933 87.1575 20.92 86.5975 20.92C85.1308 20.92 83.7975 20.6 82.5975 19.96C81.3975 19.2933 80.4508 18.3467 79.7575 17.12C79.0642 15.8933 78.7175 14.4 78.7175 12.64V0.999998H84.5575V12.08C84.5575 12.8533 84.6775 13.52 84.9175 14.08C85.1575 14.64 85.5175 15.0667 85.9975 15.36C86.5042 15.6267 87.1175 15.76 87.8375 15.76C88.2375 15.76 88.6108 15.68 88.9575 15.52C89.3042 15.3333 89.6108 15.0933 89.8775 14.8C90.1442 14.5067 90.3575 14.1733 90.5175 13.8C90.6775 13.4267 90.7575 13.0267 90.7575 12.6V0.999998H96.5975V22.72Z" fill="#00C8FF"/>
</svg>
